Coordinates
version=1
nRows=20
nColumns=34
inDegrees=yes

Units are S.I. units (second, meters, Newtons, ...)
If the header above contains a line with 'inDegrees', this indicates whether rotational values are in degrees (yes) or radians (no).

endheader
time	pelvis_tilt	pelvis_list	pelvis_rotation	pelvis_tx	pelvis_ty	pelvis_tz	hip_flexion_r	hip_adduction_r	hip_rotation_r	knee_angle_r	ankle_angle_r	subtalar_angle_r	mtp_angle_r	hip_flexion_l	hip_adduction_l	hip_rotation_l	knee_angle_l	ankle_angle_l	subtalar_angle_l	mtp_angle_l	lumbar_extension	lumbar_bending	lumbar_rotation	arm_flex_r	arm_add_r	arm_rot_r	elbow_flex_r	pro_sup_r	arm_flex_l	arm_add_l	arm_rot_l	elbow_flex_l	pro_sup_l
      5.36666670	      3.80736903	     -5.14371892	    -30.54396387	      1.26293422	      0.99098097	      0.34710508	      8.96161236	     -4.53614788	     -8.12320432	     34.20359069	     13.74101350	      0.41831526	      0.00000000	      1.38564531	      2.66113940	      2.92945863	     10.37453591	     10.26833558	     -7.07591125	      0.00000000	     -9.10845430	     -5.13915057	      3.68533424	     11.19613644	    -11.59833988	     21.23723870	     19.94543537	    119.74817918	      4.60196833	     -8.28082988	      6.12996702	     19.85800139	    116.48882388
      5.38333330	      3.64508252	     -4.79912399	    -31.40345331	      1.26185711	      0.99018965	      0.34529943	     10.89799566	     -5.15380263	     -7.96614688	     37.06244301	     13.95506963	      0.10718849	      0.00000000	      1.76706907	      3.03461540	      2.22177580	     10.30234886	     10.13202655	     -7.23836988	      0.00000000	     -9.09804254	     -5.27183795	      3.99155905	     11.35616225	    -11.50393072	     21.41992714	     19.85347421	    119.74817918	      5.41048804	     -8.80233707	      5.96623045	     19.36956446	    116.51014060
      5.40000000	      3.69355550	     -4.95051609	    -31.86331465	      1.26157110	      0.99023080	      0.34322177	     11.90965470	     -5.45064223	     -8.25843365	     39.16053617	     13.33128836	     -0.27305153	      0.00000000	      1.61092498	      3.08407129	      1.95144985	     10.16895138	     10.27080874	     -7.39180086	      0.00000000	     -9.58365457	     -4.94351088	      3.95964124	     11.48495645	    -11.47066653	     21.43937130	     19.81809836	    119.74817918	      6.10033793	     -9.33545579	      5.82461523	     19.29615507	    116.48793295
      5.41666670	      3.47396359	     -4.34165137	    -32.72904696	      1.26049760	      0.98906365	      0.34182799	     13.79290697	     -6.06964068	     -7.77115770	     41.30401115	     12.85744098	     -1.46755699	      0.00000000	      2.16707346	      3.62956695	      1.16564747	      9.99161046	      9.89451886	     -7.62336124	      0.00000000	     -9.27897701	     -5.27688240	      4.29415743	     11.48092135	    -11.25445500	     21.52583055	     19.62158155	    119.74817918	      6.89627451	    -10.03211288	      5.54473151	     18.97441534	    116.44435379
      5.43333330	      3.50999462	     -4.46185147	    -33.26314160	      1.26042559	      0.98906515	      0.34012196	     14.40753486	     -6.35749365	     -8.07792116	     42.50971052	     12.14283358	     -1.80230180	      0.00000000	      2.09501367	      3.68406512	      0.79559387	      9.98182448	      9.96000605	     -7.84701437	      0.00000000	     -9.59922987	     -4.86879049	      4.29184427	     11.53913173	    -11.22413088	     21.50253594	     19.55697986	    119.74817918	      7.45365078	    -10.66284651	      5.47447680	     19.17177890	    116.44508157
      5.45000000	      3.33776619	     -4.15197676	    -33.99208213	      1.25984354	      0.98837417	      0.33882380	     15.50066238	     -6.63871633	     -7.65773548	     43.51484127	     11.14200800	     -3.20433601	      0.00000000	      2.38751183	      3.96852708	      0.19359456	      9.74733852	      9.71187298	     -8.03549663	      0.00000000	     -9.47432907	     -4.80049814	      4.48545513	     11.53476541	    -11.06915215	     21.33197608	     19.30430659	    119.74817918	      7.95293109	    -11.43904290	      5.43027374	     19.56038045	    116.49362775
      5.46666670	      3.26595200	     -4.21390072	    -34.44748311	      1.26009169	      0.98829476	      0.33737105	     15.82978754	     -6.92408435	     -8.10856844	     43.88481631	     10.33055240	     -3.41848330	      0.00000000	      2.31188957	      4.00438865	     -0.07556663	      9.50732890	      9.74734799	     -8.17499608	      0.00000000	     -9.62508360	     -4.35103273	      4.60427931	     11.40188488	    -11.11526008	     21.26092781	     19.14255323	    119.74817918	      8.46509996	    -12.05329953	      5.34208831	     19.91036729	    116.48639134
      5.48333330	      3.21953240	     -4.19880288	    -34.88194590	      1.26055001	      0.98821960	      0.33624269	     16.04903452	     -7.18862778	     -8.32348013	     43.95447594	      9.11887240	     -3.91609957	      0.00000000	      2.25301166	      4.10353374	     -0.41248861	      9.28999887	      9.57364415	     -8.28437067	      0.00000000	     -9.64537888	     -3.98684041	      4.73354783	     11.22675533	    -11.10689787	     21.09027592	     18.91501019	    119.74766051	      8.78884384	    -12.70847045	      5.29554787	     20.52657607	    116.49505912
      5.50000000	      3.12250390	     -4.09012653	    -35.19326213	      1.26047800	      0.98804135	      0.33521745	     16.09019330	     -7.34682099	     -8.35786334	     43.43580613	      8.64296334	     -4.10392013	      0.00000000	      2.31154407	      4.22845426	     -0.59570024	      9.03802000	      9.60120335	     -8.39025088	      0.00000000	     -9.63131739	     -3.74336677	      4.70256649	     11.09309241	    -11.02480826	     21.03010609	     18.81960301	    119.74817918	      9.25375642	    -13.38884900	      5.22026087	     20.92723133	    116.49189569
      5.51666670	      3.08411022	     -4.23265606	    -35.89525317	      1.26001800	      0.98830760	      0.33537223	     15.88877975	     -6.78386662	     -7.29991440	     42.52369978	      6.76405753	     -6.38048584	      0.00000000	      2.00059616	      4.09537634	     -1.11125497	      8.56287512	      9.25152499	     -8.59423646	      0.00000000	     -9.76473634	     -3.36434679	      4.91604375	     11.12048273	    -10.82518971	     20.17254925	     18.38899490	    119.70575555	      8.89119779	    -14.35394578	      5.37967968	     22.96101253	    116.63263330
      5.53333330	      3.02924831	     -4.03638843	    -36.21976243	      1.26005147	      0.98798516	      0.33450129	     15.72028862	     -7.00809330	     -7.31894714	     41.52062848	      6.60401115	     -6.42917659	      0.00000000	      2.14657322	      4.30651082	     -1.20156730	      8.47111291	      9.27900488	     -8.64605301	      0.00000000	     -9.64087702	     -3.18332442	      5.02256666	     10.96468207	    -10.86517897	     20.09655756	     18.26078361	    119.70222311	      9.34171515	    -14.84312889	      5.26919414	     23.24896474	    116.62416411
      5.55000000	      3.07582987	     -4.40541693	    -36.84728442	      1.25977077	      0.98864828	      0.33531214	     14.78214088	     -6.30876900	     -6.50234760	     39.80559210	      5.76185342	     -7.43230671	      0.00000000	      1.68574043	      3.99440116	     -1.82557212	      8.21648210	      9.13387796	     -8.78160686	      0.00000000	     -9.87145778	     -2.66609006	      5.41185777	     10.84978947	    -10.72000692	     18.90513557	     17.82809433	    119.52808593	      9.20379834	    -15.58391763	      5.05692676	     24.95586655	    116.67820632
      5.56666670	      3.08369377	     -4.17257572	    -37.06334638	      1.25964601	      0.98833266	      0.33498686	     14.29371026	     -6.45132160	     -6.33444275	     38.30974446	      5.76468746	     -7.50031929	      0.00000000	      1.87423121	      4.24151385	     -1.94662093	      8.26592219	      9.02564233	     -8.76135668	      0.00000000	     -9.67600112	     -2.59086146	      5.57135670	     10.56428940	    -10.70791468	     18.71697209	     17.61318816	    119.50852299	      9.73324365	    -16.09001491	      4.89503871	     25.38983225	    116.66943199
      5.58333330	      3.30379995	     -4.65602774	    -37.55170156	      1.25915114	      0.98920115	      0.33556117	     12.79457017	     -5.78750969	     -5.51878982	     36.05593884	      5.33341399	     -8.04324428	      0.00000000	      1.22392720	      3.95042999	     -2.44520506	      8.05643431	      9.13989289	     -8.60730594	      0.00000000	    -10.20892467	     -2.01163335	      5.78369529	     10.63001526	    -10.51009592	     17.28872114	     17.21407528	    119.29157726	      9.77651182	    -16.66069436	      4.69972924	     26.76050535	    116.74809365
      5.60000000	      3.26881081	     -4.34325319	    -37.62087294	      1.25899942	      0.98847228	      0.33532568	     12.21806537	     -5.91933542	     -5.09202628	     34.31028064	      5.54707904	     -7.92876404	      0.00000000	      1.52621177	      4.22054472	     -2.52368493	      8.11856509	      9.03882065	     -8.56103300	      0.00000000	     -9.92402292	     -1.95993669	      5.83855563	     10.29345795	    -10.51516078	     17.10652272	     16.98256146	    119.26836084	     10.35492644	    -17.05194425	      4.57955933	     27.15726035	    116.74502150
      5.61666670	      3.41817144	     -4.87664184	    -37.87318576	      1.25880188	      0.98911795	      0.33598146	     10.49602893	     -5.22551412	     -4.15339796	     31.74611815	      5.54004115	     -7.86060920	      0.00000000	      0.95623125	      3.83098499	     -2.89782388	      8.02748126	      9.32082999	     -8.47137619	      0.00000000	    -10.36981662	     -1.26792807	      5.97134685	     10.25401192	    -10.36848387	     15.76379735	     16.49645681	    119.01619711	     10.53913824	    -17.42919808	      4.63838742	     28.02860602	    116.82370090
      5.63333330	      3.41908661	     -4.50823356	    -37.87556049	      1.25885216	      0.98839284	      0.33593863	      9.78966391	     -5.45322915	     -3.57489740	     29.80390149	      5.85311695	     -7.68039209	      0.00000000	      1.29233361	      4.16082401	     -2.90042729	      8.17056205	      9.22684275	     -8.39578629	      0.00000000	    -10.05572299	     -1.28011421	      6.00108951	      9.85248370	    -10.37252820	     15.58108938	     16.26287090	    118.98579523	     10.97237893	    -17.67426550	      4.60304859	     28.26914031	    116.83247627
      5.65000000	      3.76183002	     -5.25851522	    -37.75478221	      1.25933089	      0.98962911	      0.33682510	      7.29955600	     -4.73893526	     -2.78322177	     26.65958557	      5.88575499	     -7.87440736	      0.00000000	      0.27176014	      3.70138093	     -3.11513972	      7.87715652	      9.47105312	     -7.91427258	      0.00000000	    -10.78238424	     -0.52999042	      6.16966011	      9.51292624	    -10.26249003	     13.52141510	     16.05537317	    118.56216548	     11.55843788	    -17.89407268	      5.34392443	     28.50558057	    117.08526567
      5.66666670	      3.59965447	     -5.00416505	    -37.86862510	      1.25915097	      0.98878320	      0.33745195	      6.43124422	     -4.71516378	     -2.01438038	     24.40233927	      6.69849409	     -7.56328531	      0.00000000	      0.67084061	      3.79582380	     -3.18731584	      8.05745969	      9.54424295	     -8.01407153	      0.00000000	    -10.39277131	     -0.34441610	      6.26441595	      9.19926510	    -10.20448322	     13.11727979	     15.82963151	    118.49609058	     11.80796713	    -18.09306394	      5.54291849	     28.65233730	    117.14568690
      5.68333330	      3.80110128	     -5.24690878	    -37.87117247	      1.25944120	      0.98896163	      0.33856678	      4.57624717	     -4.50605501	     -1.35089449	     21.66531784	      7.14883524	     -7.06568890	      0.00000000	      0.31993761	      3.69306539	     -3.20489491	      8.14980178	      9.86077221	     -8.05932817	      0.00000000	    -10.58528382	      0.01854835	      6.56534053	      8.80883465	    -10.10601243	     11.76627010	     15.53839583	    118.22269790	     12.23258741	    -18.26674941	      6.44888772	     28.85915346	    117.38422895
